<svg width="57" height="46" viewBox="0 0 57 46" fill="none" xmlns="http://www.w3.org/2000/svg">
<rect x="17" y="13.5" width="40" height="32" rx="3" fill="#A3BAFE"/>
<path d="M40.0463 26.3997L17 38.1585V42.5C17 44.1569 18.3431 45.5 20 45.5H54C55.6569 45.5 57 44.1569 57 42.5V38.1585L43.3303 26.7673C42.4078 25.9985 41.1158 25.8539 40.0463 26.3997Z" fill="white" fill-opacity="0.5"/>
<circle cx="48.5" cy="20" r="3.5" fill="white" fill-opacity="0.5"/>
<path fill-rule="evenodd" clip-rule="evenodd" d="M20.0007 6.5C19.7834 6.50004 19.5721 6.57086 19.3986 6.70173C19.2252 6.8326 19.0991 7.01641 19.0394 7.22533L17.9554 11.02C17.722 11.8372 17.2841 12.5815 16.6832 13.1824C16.0822 13.7834 15.3379 14.2213 14.5207 14.4547L10.7261 15.5387C10.5173 15.5985 10.3336 15.7246 10.2029 15.8981C10.0722 16.0715 10.0014 16.2828 10.0014 16.5C10.0014 16.7172 10.0722 16.9285 10.2029 17.1019C10.3336 17.2754 10.5173 17.4015 10.7261 17.4613L14.5207 18.5453C15.3379 18.7787 16.0822 19.2166 16.6832 19.8176C17.2841 20.4185 17.722 21.1628 17.9554 21.98L19.0394 25.7747C19.0992 25.9835 19.2254 26.1671 19.3988 26.2978C19.5722 26.4286 19.7835 26.4993 20.0007 26.4993C20.2179 26.4993 20.4292 26.4286 20.6026 26.2978C20.7761 26.1671 20.9022 25.9835 20.9621 25.7747L22.0461 21.98C22.2795 21.1628 22.7173 20.4185 23.3183 19.8176C23.9193 19.2166 24.6635 18.7787 25.4807 18.5453L29.2754 17.4613C29.4842 17.4015 29.6678 17.2754 29.7986 17.1019C29.9293 16.9285 30 16.7172 30 16.5C30 16.2828 29.9293 16.0715 29.7986 15.8981C29.6678 15.7246 29.4842 15.5985 29.2754 15.5387L25.4807 14.4547C24.6635 14.2213 23.9193 13.7834 23.3183 13.1824C22.7173 12.5815 22.2795 11.8372 22.0461 11.02L20.9621 7.22533C20.9024 7.01641 20.7763 6.8326 20.6028 6.70173C20.4294 6.57086 20.218 6.50004 20.0007 6.5ZM8.00072 2.5C7.77763 2.49988 7.56091 2.57435 7.38502 2.71158C7.20914 2.84881 7.08419 3.04091 7.03005 3.25733L6.68605 4.63867C6.37139 5.892 5.39272 6.87067 4.13939 7.18533L2.75806 7.52933C2.54122 7.58304 2.34861 7.70781 2.21095 7.88373C2.07328 8.05966 1.99848 8.27661 1.99848 8.5C1.99848 8.72339 2.07328 8.94034 2.21095 9.11627C2.34861 9.29219 2.54122 9.41696 2.75806 9.47067L4.13939 9.81467C5.39272 10.1293 6.37139 11.108 6.68605 12.3613L7.03005 13.7427C7.08376 13.9595 7.20853 14.1521 7.38445 14.2898C7.56038 14.4274 7.77733 14.5022 8.00072 14.5022C8.22411 14.5022 8.44106 14.4274 8.61699 14.2898C8.79291 14.1521 8.91768 13.9595 8.97139 13.7427L9.31539 12.3613C9.46924 11.7459 9.78746 11.1839 10.236 10.7353C10.6846 10.2867 11.2466 9.96852 11.8621 9.81467L13.2434 9.47067C13.4602 9.41696 13.6528 9.29219 13.7905 9.11627C13.9282 8.94034 14.003 8.72339 14.003 8.5C14.003 8.27661 13.9282 8.05966 13.7905 7.88373C13.6528 7.70781 13.4602 7.58304 13.2434 7.52933L11.8621 7.18533C11.2466 7.03148 10.6846 6.71326 10.236 6.2647C9.78746 5.81614 9.46924 5.25409 9.31539 4.63867L8.97139 3.25733C8.91725 3.04091 8.7923 2.84881 8.61642 2.71158C8.44053 2.57435 8.22381 2.49988 8.00072 2.5ZM10.0007 20.5C9.7907 20.4999 9.58597 20.5659 9.41557 20.6887C9.24517 20.8114 9.11776 20.9847 9.05139 21.184L8.52605 22.7613C8.32605 23.3573 7.85939 23.8267 7.26205 24.0253L5.68472 24.552C5.4861 24.6187 5.31344 24.7461 5.19112 24.9162C5.0688 25.0863 5.00299 25.2905 5.00299 25.5C5.00299 25.7095 5.0688 25.9137 5.19112 26.0838C5.31344 26.2539 5.4861 26.3813 5.68472 26.448L7.26205 26.9747C7.85805 27.1747 8.32739 27.6413 8.52605 28.2387L9.05272 29.816C9.1194 30.0146 9.24679 30.1873 9.41689 30.3096C9.58698 30.4319 9.79121 30.4977 10.0007 30.4977C10.2102 30.4977 10.4145 30.4319 10.5846 30.3096C10.7547 30.1873 10.882 30.0146 10.9487 29.816L11.4754 28.2387C11.5736 27.9444 11.7389 27.677 11.9583 27.4576C12.1777 27.2382 12.4451 27.0729 12.7394 26.9747L14.3167 26.448C14.5153 26.3813 14.688 26.2539 14.8103 26.0838C14.9326 25.9137 14.9985 25.7095 14.9985 25.5C14.9985 25.2905 14.9326 25.0863 14.8103 24.9162C14.688 24.7461 14.5153 24.6187 14.3167 24.552L12.7394 24.0253C12.1434 23.8253 11.6741 23.3587 11.4754 22.7613L10.9487 21.184C10.8824 20.985 10.7552 20.8118 10.5851 20.689C10.4149 20.5663 10.2105 20.5002 10.0007 20.5Z" fill="#3366FF"/>
</svg>
